<?xml version="1.0" encoding="utf-8"?>
<!-- Generator: Adobe Illustrator 22.1.0, SVG Export Plug-In . SVG Version: 6.00 Build 0)  -->
<svg version="1.1" id="Слой_1" xmlns="http://www.w3.org/2000/svg" xmlns:xlink="http://www.w3.org/1999/xlink" x="0px" y="0px"
	 viewBox="0 0 116 120" style="enable-background:new 0 0 116 120;" xml:space="preserve">
<style type="text/css">
	.st0{opacity:0.2;fill:#DE2B2B;}
	.st1{fill:#DE2B2B;}
	.st2{fill:#212121;}
</style>
<path class="st0" d="M109.1,110.3L80.6,81.5c-0.7-0.7-1.8-0.7-2.5,0L76,83.6l-4.1-4.2c7-7.7,10.9-17.7,10.9-28.3
	c0-11.2-4.3-21.6-12.1-29.5C62.8,13.7,52.4,9.4,41.4,9.4c-11.1,0-21.5,4.3-29.3,12.2C4.3,29.5,0,40,0,51.2s4.3,21.6,12.1,29.5
	s18.2,12.2,29.3,12.2c10.5,0,20.3-3.9,28-11l4.1,4.2l-2.1,2.1c-0.7,0.7-0.7,1.8,0,2.5l28.5,28.8c0.3,0.3,0.8,0.5,1.2,0.5
	c0.4,0,0.9-0.2,1.2-0.5l6.6-6.7C109.8,112.1,109.8,111,109.1,110.3z"/>
<path class="st1" d="M47.8,35.6c-3.4,0-6.1,2.8-6.1,6.1c0,3.4,2.7,6.1,6.1,6.1c3.4,0,6.1-2.8,6.1-6.1C53.9,38.4,51.1,35.6,47.8,35.6
	z M47.8,45.5c-2,0-3.7-1.7-3.7-3.7c0-2,1.6-3.7,3.7-3.7c2,0,3.7,1.7,3.7,3.7C51.4,43.8,49.8,45.5,47.8,45.5z M63.4,39.1
	c-0.1-0.6-0.6-1-1.2-1h-4.1c-0.1-0.4-0.3-0.7-0.4-1.1l2.9-2.9c0.4-0.4,0.5-1.1,0.1-1.6c-1-1.5-2.3-2.7-3.7-3.8
	c-0.5-0.3-1.1-0.3-1.6,0.1l-2.9,2.9c-0.3-0.2-0.7-0.3-1.1-0.4v-4.1c0-0.6-0.4-1.1-1-1.2c-0.9-0.1-1.8-0.2-2.6-0.2
	c-0.9,0-1.8,0.1-2.6,0.2c-0.6,0.1-1,0.6-1,1.2v4.1c-0.4,0.1-0.7,0.3-1.1,0.4l-2.9-2.9c-0.4-0.4-1.1-0.5-1.6-0.1
	c-1.4,1-2.7,2.3-3.7,3.8c-0.3,0.5-0.3,1.2,0.1,1.6l2.9,2.9c-0.2,0.4-0.3,0.7-0.4,1.1h-4.1c-0.6,0-1.1,0.4-1.2,1
	C32,40,32,40.9,32,41.8c0,0.9,0.1,1.8,0.2,2.7c0.1,0.6,0.6,1,1.2,1h4.1c0.1,0.4,0.3,0.7,0.4,1.1L35,49.4c-0.4,0.4-0.5,1.1-0.1,1.6
	c1,1.5,2.3,2.7,3.7,3.8c0.5,0.3,1.1,0.3,1.6-0.1l2.9-2.9c0.3,0.2,0.7,0.3,1.1,0.4v4.1c0,0.6,0.4,1.1,1,1.2c0.9,0.1,1.8,0.2,2.6,0.2
	c0.9,0,1.8-0.1,2.6-0.2c0.6-0.1,1-0.6,1-1.2v-4.1c0.4-0.1,0.7-0.3,1.1-0.4l2.9,2.9c0.4,0.4,1.1,0.5,1.6,0.1c1.4-1,2.7-2.3,3.7-3.8
	c0.3-0.5,0.3-1.2-0.1-1.6l-2.9-2.9c0.2-0.4,0.3-0.7,0.4-1.1h4.1c0.6,0,1.1-0.4,1.2-1c0.1-0.9,0.2-1.8,0.2-2.7
	C63.6,40.9,63.5,40,63.4,39.1z M61.1,43h-3.9c-0.6,0-1,0.4-1.2,0.9c-0.2,0.8-0.5,1.5-0.9,2.2c-0.3,0.5-0.2,1.1,0.2,1.5l2.8,2.8
	c-0.5,0.6-1.1,1.2-1.7,1.7l-2.8-2.8c-0.4-0.4-1-0.5-1.5-0.2c-0.7,0.4-1.4,0.7-2.2,0.9c-0.5,0.1-0.9,0.6-0.9,1.2v3.9
	c-0.8,0.1-1.6,0.1-2.4,0v-3.9c0-0.6-0.4-1.1-0.9-1.2c-0.8-0.2-1.5-0.5-2.2-0.9C43,48.9,42.4,49,42,49.4l-2.8,2.8
	c-0.6-0.5-1.2-1.1-1.7-1.7l2.8-2.8c0.4-0.4,0.5-1,0.2-1.5c-0.4-0.7-0.7-1.4-0.9-2.2c-0.1-0.5-0.6-0.9-1.2-0.9h-3.9
	c0-0.4-0.1-0.8-0.1-1.2s0-0.8,0.1-1.2h3.9c0.6,0,1-0.4,1.2-0.9c0.2-0.8,0.5-1.5,0.9-2.2c0.3-0.5,0.2-1.1-0.2-1.5l-2.8-2.8
	c0.5-0.6,1.1-1.2,1.7-1.7l2.8,2.8c0.4,0.4,1,0.5,1.5,0.2c0.7-0.4,1.4-0.7,2.2-0.9c0.5-0.1,0.9-0.6,0.9-1.2v-3.9
	c0.8-0.1,1.6-0.1,2.4,0v3.9c0,0.6,0.4,1.1,0.9,1.2c0.8,0.2,1.5,0.5,2.2,0.9c0.5,0.3,1.1,0.2,1.5-0.2l2.8-2.8
	c0.6,0.5,1.2,1.1,1.7,1.7l-2.8,2.8c-0.4,0.4-0.5,1-0.2,1.5c0.4,0.7,0.7,1.4,0.9,2.2c0.1,0.5,0.6,0.9,1.2,0.9h3.9
	c0,0.4,0.1,0.8,0.1,1.2S61.2,42.6,61.1,43z"/>
<path class="st2" d="M115.5,100.9L87,72.1c-0.7-0.7-1.8-0.7-2.5,0l-2.1,2.1L78.3,70c7-7.7,10.9-17.7,10.9-28.3
	c0-11.2-4.3-21.6-12.1-29.5C69.2,4.3,58.8,0,47.8,0C36.7,0,26.3,4.3,18.5,12.2C10.7,20.1,6.4,30.6,6.4,41.8s4.3,21.6,12.1,29.5
	c7.8,7.9,18.2,12.2,29.3,12.2c10.5,0,20.3-3.9,28-11l4.1,4.2l-2.1,2.1c-0.7,0.7-0.7,1.8,0,2.5l28.5,28.8c0.3,0.3,0.8,0.5,1.2,0.5
	c0.4,0,0.9-0.2,1.2-0.5l6.6-6.7C116.2,102.7,116.2,101.6,115.5,100.9z M74.6,68.8C67.4,76,57.9,80,47.8,80C37.7,80,28.2,76,21,68.8
	C13.8,61.6,9.9,52,9.9,41.8S13.8,22,21,14.7C28.2,7.5,37.7,3.5,47.8,3.5c10.1,0,19.6,4,26.8,11.2c7.2,7.2,11.1,16.8,11.1,27
	S81.7,61.6,74.6,68.8z M107.7,106.3L81.6,80l4.1-4.2l26.1,26.3L107.7,106.3z M72.9,21.7c-0.6-0.8-1.7-0.9-2.5-0.3
	c-0.8,0.6-0.9,1.7-0.3,2.5c9,11.5,8.1,27.9-2.2,38.3c-11.1,11.2-29.3,11.2-40.4,0c-11.1-11.2-11.1-29.5,0-40.8
	C37.9,11,54.2,10.1,65.5,19.2c0.8,0.6,1.9,0.5,2.5-0.3c0.6-0.8,0.5-1.9-0.3-2.5C55,6.2,36.6,7.3,25.1,18.9
	c-12.5,12.6-12.5,33.1,0,45.8c6.3,6.3,14.5,9.5,22.7,9.5c8.2,0,16.4-3.2,22.7-9.5C82,53,83,34.5,72.9,21.7z"/>
</svg>
