<?xml version="1.0" encoding="utf-8"?>
<!-- Generator: Adobe Illustrator 21.0.0, SVG Export Plug-In . SVG Version: 6.00 Build 0)  -->
<svg version="1.1" id="Слой_1" xmlns="http://www.w3.org/2000/svg" xmlns:xlink="http://www.w3.org/1999/xlink" x="0px" y="0px"
	 viewBox="0 0 16.7 16" style="enable-background:new 0 0 16.7 16;" xml:space="preserve">
<style type="text/css">
	.st0{fill-rule:evenodd;clip-rule:evenodd;fill:#FFFFFF;}
</style>
<path class="st0" d="M9.5,1.1C9.5,0.5,9,0,8.4,0C7.8,0,7.3,0.5,7.3,1.1v4.1c0,0.6,0.5,1.1,1.1,1.1c0.6,0,1.1-0.5,1.1-1.1V1.1z M6,8
	c0.2-0.6-0.1-1.2-0.7-1.4L1.4,5.3C0.9,5.1,0.2,5.5,0.1,6c-0.2,0.6,0.1,1.2,0.7,1.4l3.9,1.3C5.2,8.9,5.8,8.6,6,8z M6.9,10.7
	c-0.5-0.4-1.2-0.2-1.5,0.2L3,14.3c-0.4,0.5-0.2,1.2,0.2,1.5c0.5,0.4,1.2,0.2,1.5-0.2l2.4-3.3C7.5,11.8,7.4,11.1,6.9,10.7z M11.3,11
	c-0.4-0.5-1-0.6-1.5-0.2c-0.5,0.4-0.6,1-0.2,1.5l2.4,3.3c0.4,0.5,1,0.6,1.5,0.2c0.5-0.4,0.6-1,0.2-1.5L11.3,11z M16.7,6
	c-0.2-0.6-0.8-0.9-1.4-0.7l-3.9,1.3c-0.6,0.2-0.9,0.8-0.7,1.4c0.2,0.6,0.8,0.9,1.4,0.7L16,7.4C16.5,7.2,16.8,6.6,16.7,6z"/>
</svg>
