<?xml version="1.0" encoding="utf-8"?>
<!-- Generator: Adobe Illustrator 21.0.0, SVG Export Plug-In . SVG Version: 6.00 Build 0)  -->
<svg version="1.1" id="Слой_1" xmlns="http://www.w3.org/2000/svg" xmlns:xlink="http://www.w3.org/1999/xlink" x="0px" y="0px"
	 viewBox="0 0 16 16" style="enable-background:new 0 0 16 16;" xml:space="preserve">
<style type="text/css">
	.st0{fill:#FFFFFF;}
</style>
<path class="st0" d="M0,8c0-4.4,3.6-8,8-8c4.4,0,8,3.6,8,8c0,4.4-3.6,8-8,8c-0.9,0-1.7-0.1-2.5-0.4c0.6-3.3,2.7-6,5.4-7.1
	c0.3,0.4,0.8,0.6,1.3,0.6c1,0,1.8-0.8,1.8-1.8c0-1-0.8-1.8-1.8-1.8c-1,0-1.8,0.8-1.8,1.8C7,8.4,4.1,10.8,2.7,14
	c-0.5-0.4-0.9-0.9-1.2-1.4C1.5,9.5,3,6.8,5.3,5.3c0.3,0.4,0.8,0.6,1.3,0.6c1,0,1.8-0.8,1.8-1.8S7.6,2.3,6.7,2.3
	c-1,0-1.8,0.8-1.8,1.8c0,0.1,0,0.1,0,0.2C2.8,5,1,6.4,0,8.3C0,8.2,0,8.1,0,8z"/>
</svg>
