<?xml version="1.0" encoding="utf-8"?>
<!-- Generator: Adobe Illustrator 21.0.0, SVG Export Plug-In . SVG Version: 6.00 Build 0)  -->
<svg version="1.1" id="Слой_1" xmlns="http://www.w3.org/2000/svg" xmlns:xlink="http://www.w3.org/1999/xlink" x="0px" y="0px"
	 viewBox="0 0 13.3 13.2" style="enable-background:new 0 0 13.3 13.2;" xml:space="preserve">
<style type="text/css">
	.st0{fill:#FFFFFF;}
</style>
<path class="st0" d="M11.6,7.3c-0.1,0-0.3,0-0.4-0.1c-0.3-0.1-0.6-0.2-0.9-0.3c-0.3-0.1-0.6-0.1-1,0C9.1,7.1,8.8,7.3,8.7,7.6
	L8.5,7.9C7.9,7.6,7.3,7.1,6.7,6.6c-0.5-0.5-1-1.1-1.3-1.8l0.3-0.2C6,4.5,6.2,4.2,6.3,3.9c0.1-0.3,0.1-0.6,0-1
	C6.3,2.7,6.2,2.4,6.1,2.1C6.1,2,6,1.8,6,1.7C5.9,1.2,5.7,0.8,5.3,0.5C5,0.2,4.5,0,4,0H2C1.7,0,1.4,0.1,1.2,0.2
	C0.9,0.3,0.7,0.5,0.5,0.7C0.3,0.9,0.2,1.1,0.1,1.4C0,1.7,0,2,0,2.3c0.4,2.8,1.6,5.4,3.6,7.4c2,2,4.6,3.3,7.4,3.6h0.3
	c0.5,0,1-0.2,1.3-0.5c0.2-0.2,0.4-0.4,0.5-0.7c0.1-0.3,0.2-0.5,0.2-0.8v-2c0-0.5-0.2-0.9-0.5-1.3C12.5,7.6,12.1,7.4,11.6,7.3z
	 M12,11.3c0,0.1,0,0.2-0.1,0.3c0,0.1-0.1,0.2-0.2,0.2c-0.1,0.1-0.2,0.1-0.3,0.1c-0.1,0-0.2,0-0.3,0c-2.5-0.3-4.8-1.5-6.6-3.2
	C2.8,6.9,1.7,4.6,1.4,2.1c0-0.1,0-0.2,0-0.3c0-0.1,0.1-0.2,0.1-0.3c0.1-0.1,0.1-0.1,0.2-0.2c0.1,0,0.2-0.1,0.3-0.1h2
	c0.2,0,0.3,0,0.4,0.1c0.1,0.1,0.2,0.2,0.2,0.4c0,0.2,0.1,0.4,0.1,0.5c0.1,0.4,0.2,0.7,0.3,1L4.2,3.9C4.1,3.9,4,4,4,4
	C3.9,4.1,3.9,4.2,3.9,4.3c0,0.1,0,0.2,0,0.3c0,0.1,0,0.2,0.1,0.3c1,2.1,2.6,3.7,4.7,4.7c0.2,0.1,0.3,0.1,0.5,0
	c0.1,0,0.2-0.1,0.2-0.1c0.1-0.1,0.1-0.1,0.2-0.2l0.4-0.9c0.3,0.1,0.7,0.2,1.1,0.3c0.2,0,0.4,0.1,0.5,0.1c0.2,0,0.3,0.1,0.4,0.2
	C11.9,8.9,12,9.1,12,9.2L12,11.3z"/>
</svg>
